# xmcd
#
# Track frame offsets:
# 150
# 17050
# 26653
# 45885
# 59243
# 78653
# 93863
# 108948
# 124225
# 140898
# 157990
# 170935
# 188270
# 202483
#
# Disc length: 2854 seconds
#
#
# Revision: 0
# Processed by: cddbd v1.5.2PL0 Copyright (c) Steve Scherf et al.
# Submitted via: Nero 7, 11, 10, 0 
#
DISCID=c50b240e
DTITLE=Nighthawk Jackson and The Icemen - Snap Out Of It
DYEAR=1994
DGENRE=Blues
TTITLE0=Full House
TTITLE1=Gentle Groove
TTITLE2=Mo'nin' Love
TTITLE3=On My Mind
TTITLE4=Unprotected Love
TTITLE5=Always You
TTITLE6=What's Wrong With That?
TTITLE7=Snap Out Of It!
TTITLE8=Way Into Forever
TTITLE9=Southern Lover
TTITLE10=Come With Me Baby
TTITLE11=Show Me Her Love
TTITLE12=No More Maybe Baby
TTITLE13=Song For A Princess
EXTD=
EXTT0=Full House
EXTT1=Gentle Groove
EXTT2=Mo'nin' Love
EXTT3=On My Mind
EXTT4=Unprotected Love
EXTT5=Always You
EXTT6=What's Wrong With That?
EXTT7=Snap Out Of It!
EXTT8=Way Into Forever
EXTT9=Southern Lover
EXTT10=Come With Me Baby
EXTT11=Show Me Her Love
EXTT12=No More Maybe Baby
EXTT13=Song For A Princess
PLAYORDER=
